<?xml version="1.0" encoding="UTF-8" standalone="no"?>
<!-- Created with Inkscape (http://www.inkscape.org/) -->

<svg
   xmlns:dc="http://purl.org/dc/elements/1.1/"
   xmlns:cc="http://creativecommons.org/ns#"
   xmlns:rdf="http://www.w3.org/1999/02/22-rdf-syntax-ns#"
   xmlns:svg="http://www.w3.org/2000/svg"
   xmlns="http://www.w3.org/2000/svg"
   xmlns:sodipodi="http://sodipodi.sourceforge.net/DTD/sodipodi-0.dtd"
   xmlns:inkscape="http://www.inkscape.org/namespaces/inkscape"
   width="48"
   height="48"
   viewBox="0 0 48 48.000001"
   id="svg4155"
   version="1.1"
   inkscape:version="0.91 r13725"
   sodipodi:docname="android2ee_3_48px.svg">
  <defs
     id="defs4157" />
  <sodipodi:namedview
     id="base"
     pagecolor="#ffffff"
     bordercolor="#666666"
     borderopacity="1.0"
     inkscape:pageopacity="0.0"
     inkscape:pageshadow="2"
     inkscape:zoom="3.959798"
     inkscape:cx="137.65041"
     inkscape:cy="-36.625664"
     inkscape:document-units="px"
     inkscape:current-layer="layer1"
     showgrid="false"
     units="px"
     inkscape:window-width="1920"
     inkscape:window-height="1017"
     inkscape:window-x="-8"
     inkscape:window-y="-8"
     inkscape:window-maximized="1" />
  <metadata
     id="metadata4160">
    <rdf:RDF>
      <cc:Work
         rdf:about="">
        <dc:format>image/svg+xml</dc:format>
        <dc:type
           rdf:resource="http://purl.org/dc/dcmitype/StillImage" />
        <dc:title></dc:title>
      </cc:Work>
    </rdf:RDF>
  </metadata>
  <g
     inkscape:label="Calque 1"
     inkscape:groupmode="layer"
     id="layer1"
     transform="translate(0,-1004.3622)">
    <path
       inkscape:connector-curvature="0"
       id="path4159"
       d="m 26.35518,1051.9889 c -0.48696,-0.2288 -0.8509,-0.531 -1.07435,-0.892 -0.16978,-0.2744 -0.22025,-0.5489 -0.51369,-2.7941 -0.17897,-1.3694 -0.34236,-2.5501 -0.36308,-2.6236 -0.0263,-0.094 -0.15527,-0.1706 -0.42817,-0.256 -2.46408,-0.7709 -4.56845,-2.2271 -5.75995,-3.9858 l -0.27399,-0.4045 0.13356,-0.619 c 0.17649,-0.818 0.23594,-2.5682 0.12153,-3.5779 -0.18408,-1.6244 -0.54066,-2.9687 -1.30428,-4.9172 -0.86502,-2.2072 -1.25507,-3.4474 -1.71151,-5.4419 -0.14589,-0.6376 -0.27836,-1.1767 -0.29438,-1.1981 -0.0611,-0.082 -0.33669,-2.1507 -0.35646,-2.676 -0.0201,-0.534 -0.0151,-0.5527 0.16526,-0.625 0.15398,-0.062 2.0812,-0.4958 3.14303,-0.7079 0.15343,-0.031 0.27897,-0.077 0.27897,-0.1027 0,-0.026 -0.37661,-0.1514 -0.8369,-0.279 -1.13008,-0.3133 -2.11671,-0.7187 -2.46398,-1.0122 l -0.28397,-0.2401 0.0865,-0.7896 c 0.25005,-2.2833 1.1363,-4.4148 2.53875,-6.1057 0.87985,-1.0608 2.20395,-2.2423 3.04258,-2.7149 0.1432,-0.081 0.5239,-0.3037 0.846,-0.4955 1.81932,-1.0837 4.18263,-1.8599 6.60029,-2.1678 1.25887,-0.1603 3.32547,-0.1467 4.4743,0.029 0.99835,0.153 2.4158,0.5207 3.08936,0.8014 0.25256,0.1052 0.52254,0.1914 0.59996,0.1914 0.11019,0 0.28283,-0.2533 0.79467,-1.1657 0.64261,-1.1455 0.75786,-1.2795 1.02687,-1.1943 0.26823,0.085 0.2116,0.2734 -0.42825,1.4251 -0.35134,0.6324 -0.63843,1.1833 -0.63797,1.2243 6.8e-4,0.041 0.21008,0.1909 0.4658,0.3332 1.3506,0.7519 2.14223,1.3241 3.44642,2.4911 1.60307,1.4345 2.88351,3.2691 3.71759,5.3267 0.42442,1.047 0.7552,2.6936 0.84522,4.2072 l 0.0674,1.1336 -0.25696,1.1878 c -0.14132,0.6532 -0.28629,1.2514 -0.32214,1.3292 -0.0359,0.078 -0.10862,0.4087 -0.16171,0.7352 -0.08,0.4922 -0.116,0.5868 -0.21048,0.5536 -0.0627,-0.022 -0.96404,-0.085 -2.00301,-0.1396 -1.51886,-0.08 -1.90003,-0.1176 -1.94519,-0.1916 -0.0309,-0.051 -0.11637,-0.2123 -0.18995,-0.3592 -0.33037,-0.6595 -1.55626,-0.9769 -3.52654,-0.913 -1.54693,0.05 -1.90988,0.1367 -3.3848,0.8076 -0.69556,0.3164 -1.69984,0.768 -2.23174,1.0034 -2.86935,1.2703 -3.83936,1.7947 -3.32,1.7947 0.0826,0 1.58265,-0.6549 3.33355,-1.4554 2.09312,-0.9569 3.34148,-1.4916 3.64489,-1.561 0.7481,-0.1713 1.83335,-0.2596 2.65755,-0.2164 1.66799,0.087 2.4618,0.4663 2.46206,1.1748 7e-5,0.2245 0.0299,0.3101 0.11171,0.3211 0.0614,0.01 1.06565,0.086 2.23173,0.1719 1.16609,0.086 2.23376,0.1871 2.37259,0.2239 0.33453,0.089 1.09409,0.7231 1.4597,1.2194 0.24634,0.3344 0.29739,0.4618 0.3193,0.7972 0.0144,0.2195 -0.025,0.5926 -0.0874,0.829 l -0.11352,0.4298 0.62668,1.044 c 0.36377,0.606 0.81454,1.25 1.07444,1.5352 0.24626,0.2702 0.42066,0.4988 0.38753,0.5079 -0.0331,0.01 -0.30916,-0.078 -0.61343,-0.1936 -0.52652,-0.2002 -1.75845,-0.5356 -2.28791,-0.6229 -0.23053,-0.038 -0.27731,-0.014 -0.70672,0.3555 -0.47858,0.4123 -0.89364,0.6272 -1.36932,0.7087 -0.20792,0.036 -0.29257,0.087 -0.33071,0.1989 -0.0282,0.083 -0.0887,0.2614 -0.13437,0.3965 -0.0457,0.1351 -0.41234,1.7956 -0.81475,3.69 -0.48321,2.2748 -0.78554,3.545 -0.89032,3.7405 -0.46817,0.8737 -1.68666,2.0614 -2.85308,2.7811 -0.35801,0.2209 -0.65244,0.404 -0.65428,0.4068 -0.007,0.01 -0.28991,1.9511 -0.51147,3.5055 -0.12517,0.8782 -0.28286,1.7183 -0.35044,1.8671 -0.50485,1.1112 -2.34074,1.4128 -3.36284,0.5525 -0.61341,-0.5163 -0.64687,-0.7325 -0.40768,-2.6345 0.10831,-0.8613 0.23323,-1.5972 0.27761,-1.6354 0.0444,-0.038 0.34848,-0.1428 0.6758,-0.2325 0.539,-0.1477 1.04351,-0.3351 0.917,-0.3406 -0.0276,0 -0.46274,0.08 -0.96709,0.1808 -1.17415,0.2342 -2.1759,0.356 -3.35928,0.4082 -0.53229,0.024 -0.97214,0.071 -1.0097,0.109 -0.04,0.04 0.0361,0.8406 0.19037,2.0018 0.1413,1.0639 0.23994,2.0656 0.21917,2.226 -0.0811,0.6261 -0.56299,1.1923 -1.29252,1.5184 -0.3755,0.1679 -0.47641,0.1851 -1.05301,0.1791 -0.54829,-0.01 -0.68745,-0.03 -0.99239,-0.1732 z m 12.10237,-15.2491 c 0.0186,-0.076 0.0526,-0.3352 0.0755,-0.576 0.0311,-0.3276 0.0162,-0.4554 -0.0595,-0.5072 -0.0575,-0.039 -0.6986,-0.1 -1.48752,-0.1405 -1.57535,-0.081 -1.48188,-0.033 -1.25086,-0.6437 0.19588,-0.518 0.43931,-0.8012 1.39422,-1.6216 0.46789,-0.402 0.8507,-0.7649 0.8507,-0.8065 0,-0.1124 -0.68211,-0.6632 -0.82125,-0.6632 -0.0661,0 -0.55528,0.3662 -1.08714,0.8137 -0.70996,0.5973 -1.01988,0.9065 -1.16591,1.1629 -0.10941,0.1921 -0.19891,0.3655 -0.19891,0.3854 0,0.02 0.0831,0.062 0.18458,0.094 0.15848,0.05 0.17889,0.087 0.14426,0.2595 -0.0925,0.4622 -0.20358,0.7773 -0.41265,1.1708 -0.17185,0.3234 -0.21635,0.4882 -0.19896,0.7369 l 0.0224,0.3203 1.30186,0.044 c 0.71601,0.024 1.419,0.054 1.56221,0.066 0.1432,0.012 0.45222,0.027 0.6867,0.033 0.38727,0.01 0.42944,0 0.46023,-0.1278 z m -5.4889,-0.1114 c 0.76495,-0.3057 1.33866,-0.9995 1.52032,-1.8386 0.1184,-0.5469 0.0826,-0.6138 -0.32854,-0.6138 -0.39092,0 -0.45956,0.059 -0.52156,0.4518 -0.1601,1.013 -1.37161,1.6008 -2.16796,1.0519 l -0.22318,-0.1538 0.48354,-0.3761 c 0.26595,-0.2069 0.96258,-0.7232 1.54808,-1.1474 1.19247,-0.8639 1.16246,-0.8095 0.75119,-1.3613 -0.22695,-0.3045 -0.58969,-0.5797 -0.98745,-0.7493 -0.20762,-0.088 -0.21345,-0.1044 -0.22317,-0.6074 l -0.01,-0.5165 -0.70703,-0.017 -0.70703,-0.017 -0.46464,0.2791 c -0.25554,0.1535 -0.46462,0.303 -0.46462,0.3322 0,0.079 0.16834,0.1803 0.56095,0.3367 l 0.35168,0.1401 -0.3377,0.1634 c -0.64075,0.31 -1.10563,0.9691 -1.25046,1.7729 -0.17147,0.9517 0.22094,1.8956 1.05224,2.5309 0.70486,0.5387 1.36417,0.6442 2.12531,0.34 z m -2.26259,-2.0071 c -0.0911,-0.1832 -0.0356,-0.8941 0.0885,-1.1338 0.27965,-0.5401 0.99203,-0.961 1.47967,-0.8741 0.35241,0.063 0.79604,0.2634 0.79604,0.36 0,0.047 -0.3264,0.3201 -0.72532,0.608 -0.39892,0.288 -0.89143,0.6639 -1.09447,0.8355 -0.40425,0.3415 -0.46493,0.3642 -0.54447,0.2044 z m 3.81841,-2.9834 c 0.0239,-0.079 0.033,-0.6293 0.02,-1.2234 -0.0228,-1.0458 -0.0293,-1.0852 -0.20388,-1.2385 -0.23547,-0.2066 -0.356,-0.1996 -0.65302,0.038 l -0.24531,0.1963 0,1.0883 c 0,0.5985 0.0203,1.132 0.0452,1.1854 0.0346,0.075 0.15557,0.097 0.51932,0.097 0.43467,0 0.47779,-0.012 0.51772,-0.1432 z m -2.29106,-6.5956 c 0.106,-0.1325 0.0972,-0.1419 -0.25194,-0.2666 -0.67059,-0.2396 -1.8445,-0.54 -2.63072,-0.6732 -0.99694,-0.1688 -1.8834,-0.1451 -2.38185,0.064 -0.50161,0.2102 -1.4865,0.7415 -1.4865,0.8018 0,0.029 0.35054,-0.088 0.77898,-0.2596 0.95019,-0.3814 1.42431,-0.4311 2.54522,-0.2669 0.68809,0.1008 2.54123,0.5611 2.82973,0.7029 0.20008,0.098 0.47416,0.051 0.59708,-0.1023 z m -7.2013,-0.1657 c 0.11425,-0.1137 0.10943,-0.1209 -0.94716,-1.4318 -0.46965,-0.5827 -0.97717,-1.1514 -1.12782,-1.2638 -0.15064,-0.1123 -0.53956,-0.2982 -0.86428,-0.4131 -0.56621,-0.2003 -0.62872,-0.2089 -1.52688,-0.21 l -0.93649,-10e-4 -0.55133,0.2329 c -1.00424,0.4244 -1.23035,0.6927 -0.26473,0.3142 1.49156,-0.5847 3.34316,-0.1943 4.2325,0.8925 0.63583,0.7769 1.73076,1.9685 1.80886,1.9685 0.0488,0 0.12856,-0.04 0.17733,-0.088 z m 14.05745,-9.6009 c 0.36432,-0.2241 0.4901,-0.4883 0.48888,-1.0267 -0.002,-0.5751 -0.1545,-0.9103 -0.60424,-1.322 -0.33004,-0.3021 -0.9919,-0.5837 -1.51064,-0.6426 -0.82687,-0.094 -1.8638,0.2368 -2.61437,0.8338 -0.86115,0.6848 -0.58532,0.9619 1.8564,1.865 1.26873,0.4692 1.9591,0.5539 2.38397,0.2925 z m -11.34963,-1.1765 c 0.15739,-0.03 0.3698,-0.1193 0.47203,-0.1981 0.27996,-0.2159 0.21867,-0.6727 -0.18297,-1.3636 -0.37565,-0.6463 -0.91757,-1.1422 -1.54231,-1.4114 -0.40851,-0.1761 -0.50625,-0.1924 -1.15306,-0.1927 -0.62399,-4e-4 -0.75638,0.02 -1.13094,0.1715 -0.71033,0.288 -1.2848,0.9166 -1.47378,1.6127 -0.21311,0.785 0.37317,1.2408 1.76853,1.375 0.70566,0.068 2.89948,0.072 3.2425,0.01 z m -17.73751,24.4402 c -0.9351598,-0.1418 -2.3643298,-0.8497 -4.0477298,-2.0051 -1.64474,-1.1288 -5.91410001,-4.7464 -5.91410001,-5.0112 0,-0.048 0.14227,-0.1526 0.31616,-0.2318 1.29840001,-0.5911 4.20207001,-2.1038 5.82112001,-3.0325 2.70133,-1.5496 4.3520598,-2.6653 6.1512398,-4.1576 1.64585,-1.365 1.49108,-1.3205 1.58686,-0.4567 0.0262,0.2364 0.12986,0.872 0.23032,1.4124 0.48604,2.6144 1.05991,4.6041 2.03677,7.062 0.69343,1.7447 1.08951,3.1731 1.30668,4.7122 l 0.0497,0.3523 -0.32883,0.1164 c -0.84987,0.3007 -3.33894,0.9185 -4.48439,1.1131 -0.79724,0.1354 -2.22697,0.2018 -2.72379,0.1265 z m 13.54889,-32.0041 c -0.78701,-2.0104 -0.76847,-1.9513 -0.67183,-2.1439 0.0878,-0.1749 0.34324,-0.2726 0.5455,-0.2085 0.0615,0.019 0.1614,0.123 0.22209,0.2302 0.1499,0.2647 1.16581,2.8817 1.16581,3.0031 0,0.082 -0.53963,0.2928 -0.74907,0.2928 -0.0292,0 -0.25981,-0.5281 -0.5125,-1.1737 z"
       style="fill:#a3c064" />
    <path
       inkscape:connector-curvature="0"
       id="path4153"
       d="m 34.69169,1046.4918 c -0.32732,-0.048 -0.74577,-0.1239 -0.92989,-0.1677 l -0.33476,-0.08 0.44004,-0.1078 c 0.74522,-0.1827 1.5121,-0.4549 2.44646,-0.8686 0.49244,-0.2181 0.9118,-0.3829 0.9319,-0.3663 0.0201,0.017 -0.0106,0.3816 -0.0683,0.8111 -0.10056,0.7487 -0.11256,0.7827 -0.29087,0.8233 -0.31986,0.073 -1.57277,0.048 -2.19454,-0.044 z m -25.0698598,-7.9472 c -1.16906,-0.308 -2.762,-1.2568 -5.06836,-3.0188 -1.36744,-1.0447 -4.41653001,-3.7159 -4.41653001,-3.8692 0,-0.024 0.49377,-0.2847 1.09727001,-0.5794 3.42251,-1.671 6.75675,-3.5717 9.0950698,-5.1848 0.94069,-0.6489 2.62085,-1.987 3.18794,-2.5387 0.17023,-0.1657 0.32327,-0.2899 0.34008,-0.276 0.0272,0.023 0.10366,0.5607 0.22702,1.5987 0.0762,0.6409 0.48504,2.5229 0.78999,3.6362 0.37087,1.3539 0.75456,2.4898 1.3307,3.9394 0.6923,1.7418 1.09011,3.1755 1.30559,4.7051 l 0.0486,0.3451 -0.65828,0.1967 c -1.25293,0.3744 -3.04331,0.8054 -4.10213,0.9875 -1.31211,0.2255 -2.46209,0.2466 -3.1769798,0.058 z m 38.0511398,-5.5823 c -0.32927,-0.1433 -1.42069,-0.4618 -2.02706,-0.5915 -0.25502,-0.054 -0.48861,-0.1119 -0.5191,-0.1274 -0.0305,-0.016 0.074,-0.2411 0.23228,-0.5011 0.15824,-0.2601 0.38014,-0.688 0.49309,-0.951 0.11295,-0.2629 0.23064,-0.4702 0.26154,-0.4605 0.0309,0.01 0.29401,0.4044 0.58471,0.8772 0.29071,0.4729 0.72779,1.0877 0.9713,1.3664 0.45461,0.5202 0.45514,0.5845 0.003,0.3879 z m -22.01423,-0.3125 c -1.39696,-0.2432 -2.95504,-1.0038 -4.45703,-2.1758 -0.3544,-0.2765 -0.89543,-0.6555 -1.2023,-0.8421 -1.14643,-0.6971 -2.18403,-1.7666 -2.86455,-2.9525 -0.34889,-0.608 -0.63184,-1.3893 -0.63184,-1.7449 0,-0.1128 -0.0353,-0.2051 -0.0783,-0.2051 -0.043,0 -0.3647,0.1557 -0.71475,0.346 -0.43417,0.2361 -0.65354,0.3232 -0.69019,0.2742 -0.11328,-0.1512 -0.45539,-3.0326 -0.37312,-3.1424 0.0523,-0.07 1.11495,-0.3306 2.63746,-0.647 0.57282,-0.119 1.06951,-0.2391 1.10376,-0.2668 0.0903,-0.073 -0.0331,-0.1214 -0.97755,-0.3826 -1.47797,-0.4088 -2.61832,-0.9467 -2.61832,-1.235 0,-0.1133 0.22476,-0.1386 2.00857,-0.2258 4.16061,-0.2033 12.6635,-0.2402 15.13863,-0.066 4.60622,0.3249 9.11167,1.227 12.85109,2.573 0.43574,0.1569 0.43497,0.1476 0.12908,1.544 -0.12208,0.5573 -0.22199,1.0339 -0.22202,1.0593 -1.3e-4,0.1168 -0.20261,0.018 -0.62243,-0.3033 -1.14056,-0.8731 -3.18172,-1.9647 -4.87267,-2.6058 -0.824,-0.3125 -1.38993,-0.4784 -3.58069,-1.0498 -0.75911,-0.198 -1.42152,-0.2814 -2.86406,-0.3603 -1.43995,-0.079 -1.555,-0.072 -3.422,0.2108 -1.82559,0.2763 -3.54534,0.6833 -5.51415,1.305 l -1.05068,0.3318 -0.42717,-0.156 c -0.54378,-0.1985 -1.23497,-0.3333 -1.71474,-0.3345 -0.96434,0 -2.03875,0.431 -2.8873,1.1644 -0.6267,0.5417 -0.77133,0.7673 -0.90898,1.4182 -0.0931,0.4405 -0.0897,0.5209 0.0407,0.9417 0.40543,1.3085 1.29227,2.588 2.45139,3.5368 0.67436,0.552 1.83626,1.4109 2.85274,2.1088 2.14507,1.4728 4.41856,1.8784 6.56069,1.1705 0.51328,-0.1696 2.31323,-1.1198 3.72725,-1.9677 0.44716,-0.2681 0.86323,-0.5124 0.92461,-0.5429 0.4781,-0.2374 -1.09483,0.8213 -2.3509,1.5824 -0.29057,0.1761 -0.80784,0.4952 -1.14948,0.7092 -1.11736,0.6998 -1.85567,0.9308 -3.08326,0.9646 -0.45006,0.012 -0.96642,0 -1.14746,-0.035 z m 9.16561,-3.392 c -0.3771,-0.1433 -0.68494,-0.2743 -0.68408,-0.2912 10e-4,-0.025 1.84564,-1.2058 2.73234,-1.7498 0.11635,-0.071 0.0198,0.057 -0.23159,0.3071 -0.58466,0.5824 -0.87688,1.0849 -0.92628,1.5929 -0.0229,0.2358 -0.0734,0.4023 -0.12194,0.402 -0.0455,-4e-4 -0.39134,-0.1178 -0.76845,-0.261 z m -2.50968,-3.8579 c 0.16173,-0.1379 0.37775,-0.2861 0.48004,-0.3293 0.20957,-0.089 0.81852,-0.1668 0.81791,-0.105 -4.7e-4,0.044 -1.43153,0.685 -1.53027,0.685 -0.034,0 0.0706,-0.1128 0.23232,-0.2507 z m 11.71312,-7.639 c -2.49382,-1.0363 -8.0796,-1.9716 -15.02703,-2.5161 -6.1334,-0.4808 -10.18258,-0.6438 -12.29316,-0.4949 -0.49017,0.034 -0.65093,0.028 -0.65093,-0.028 0,-0.1349 0.68377,-1.17 1.16709,-1.7668 0.63499,-0.784 1.27128,-1.4048 2.16727,-2.1148 l 0.74259,-0.5883 1.17895,-0.042 c 2.65809,-0.096 8.2329,0.2016 12.15166,0.6478 2.95717,0.3367 7.0058,0.998 7.53115,1.2301 0.40115,0.1772 1.82923,2.0517 2.52043,3.3083 0.55013,1.0001 1.16129,2.4834 1.04683,2.5407 -0.0282,0.014 -0.26889,-0.065 -0.53485,-0.1752 z m -4.79228,-2.2971 c 0.35773,-0.18 0.51311,-0.5071 0.51395,-1.0816 10e-4,-0.593 -0.21008,-1.0231 -0.6984,-1.4239 -1.09388,-0.898 -2.81827,-0.7948 -4.1382,0.2476 -0.83612,0.6603 -0.68171,0.9066 0.99231,1.5833 1.90804,0.7713 2.78523,0.949 3.33034,0.6746 z m -11.12679,-1.2733 c 0.16569,-0.055 0.33375,-0.1496 0.37347,-0.2108 0.3289,-0.5074 -0.49188,-1.9854 -1.41216,-2.5431 -0.56886,-0.3447 -1.11529,-0.481 -1.79915,-0.449 -1.3507,0.063 -2.41634,0.932 -2.50246,2.0398 -0.0345,0.4438 -0.0327,0.4493 0.23399,0.6929 0.49544,0.4527 1.07371,0.5524 3.26296,0.5626 1.26286,0.01 1.59667,-0.011 1.84335,-0.092 z"
       style="fill:#bd363e" />
    <path
       inkscape:connector-curvature="0"
       id="path4151"
       d="m 34.59534,1046.5584 c -0.32732,-0.048 -0.74577,-0.1239 -0.92989,-0.1677 l -0.33477,-0.08 0.44004,-0.1079 c 0.74523,-0.1826 1.5121,-0.4549 2.44646,-0.8686 0.49245,-0.218 0.9118,-0.3828 0.93191,-0.3662 0.0201,0.017 -0.0106,0.3816 -0.0683,0.8111 -0.10056,0.7487 -0.11257,0.7826 -0.29087,0.8233 -0.31986,0.073 -1.57277,0.048 -2.19454,-0.044 z m -22.56004,-8.0499 c 0.0196,-0.095 0.12552,-0.4206 0.23532,-0.7246 0.57942,-1.6041 0.78346,-2.9666 0.86447,-5.7724 0.0664,-2.2995 0.13331,-3.221 0.33892,-4.667 0.1521,-1.0697 0.40432,-2.3843 0.46814,-2.4399 0.0284,-0.025 0.14381,0.4312 0.2565,1.0132 0.3996,2.0639 1.04211,4.2171 1.91001,6.4007 0.6923,1.7419 1.09011,3.1755 1.30559,4.7051 l 0.0486,0.3451 -0.65828,0.1968 c -1.08512,0.3243 -2.96062,0.788 -3.73034,0.9223 -0.39705,0.069 -0.80126,0.1409 -0.89827,0.1592 -0.15866,0.03 -0.17278,0.016 -0.14067,-0.1385 z m 13.52709,-5.7922 c -1.39696,-0.2432 -2.95504,-1.0038 -4.45704,-2.1758 -0.3544,-0.2765 -0.89543,-0.6554 -1.20229,-0.842 -1.73312,-1.0539 -3.23133,-3.0125 -3.47826,-4.547 -0.0553,-0.3438 -0.0479,-0.4179 0.0448,-0.4473 0.12318,-0.039 0.23172,0.066 0.23348,0.2268 0.002,0.1946 0.38781,1.1217 0.67218,1.6156 0.78484,1.3634 1.82121,2.3078 4.70567,4.2883 2.14507,1.4728 4.41856,1.8785 6.56069,1.1706 0.51327,-0.1696 2.31322,-1.1199 3.72725,-1.9677 0.44716,-0.2681 0.86323,-0.5124 0.9246,-0.5429 0.47811,-0.2375 -1.09482,0.8213 -2.35089,1.5824 -0.29057,0.1761 -0.80784,0.4952 -1.14948,0.7092 -1.11736,0.6998 -1.85568,0.9308 -3.08326,0.9646 -0.45006,0.012 -0.96643,0 -1.14747,-0.035 z m 9.16561,-3.392 c -0.3771,-0.1432 -0.68494,-0.2742 -0.68409,-0.2911 0.001,-0.025 1.84565,-1.2058 2.73234,-1.7498 0.11636,-0.071 0.0198,0.057 -0.23158,0.307 -0.58466,0.5824 -0.87688,1.0849 -0.92628,1.593 -0.0229,0.2358 -0.0734,0.4022 -0.12195,0.4019 -0.0455,-3e-4 -0.39134,-0.1177 -0.76844,-0.261 z m -2.50969,-3.8579 c 0.16174,-0.1378 0.37776,-0.286 0.48005,-0.3293 0.20957,-0.089 0.81851,-0.1667 0.81791,-0.105 -4.7e-4,0.044 -1.43153,0.685 -1.53027,0.685 -0.034,0 0.0706,-0.1128 0.23231,-0.2507 z m 11.64503,-3.5607 c -2.10882,-0.5054 -4.98059,-0.9766 -7.66859,-1.2581 -0.79784,-0.084 -1.63475,-0.1787 -1.85978,-0.2114 -1.87924,-0.2731 -7.39902,-0.1644 -11.04711,0.2176 -1.03455,0.1083 -3.72411,0.4827 -4.41727,0.6148 -0.35402,0.067 -0.50014,0.073 -0.5754,0.021 -0.0555,-0.038 -0.48989,-0.1767 -0.96539,-0.3082 -1.49335,-0.4131 -2.63413,-0.9499 -2.63413,-1.2394 0,-0.1133 0.22475,-0.1386 2.00856,-0.2258 4.16062,-0.2033 12.66351,-0.2402 15.13863,-0.066 4.58796,0.3236 9.38106,1.2839 12.83249,2.571 0.47629,0.1777 0.3215,0.1555 -0.81201,-0.1162 z m -4.46977,-6.5213 c 0,-0.014 0.0586,-0.1204 0.13019,-0.2354 0.0921,-0.1478 0.13017,-0.3529 0.13013,-0.7003 -7e-5,-0.593 -0.21147,-1.0235 -0.69918,-1.4239 -1.06339,-0.8729 -2.73023,-0.8011 -4.0543,0.1748 -0.24137,0.1779 -0.40214,0.2668 -0.35727,0.1976 0.22501,-0.3471 1.23884,-0.9353 1.94918,-1.131 1.25511,-0.3457 2.65791,0.093 3.18847,0.9981 0.33237,0.5668 0.34568,1.3555 0.0317,1.8778 -0.10968,0.1824 -0.31891,0.3414 -0.31891,0.2423 z m -10.95222,-1.5814 c 0.0745,-0.6399 -0.67849,-1.8216 -1.46409,-2.2976 -0.57236,-0.3469 -1.11767,-0.4833 -1.80274,-0.4512 -0.69866,0.033 -1.21287,0.2237 -1.73589,0.6445 -0.28946,0.2329 -0.33695,0.2555 -0.22945,0.1095 0.34047,-0.4627 0.9018,-0.7819 1.6393,-0.9321 0.96354,-0.1963 1.94236,0.074 2.70531,0.7474 0.80076,0.7066 1.33986,1.9223 1.05043,2.3687 -0.13378,0.2063 -0.19996,0.1295 -0.16287,-0.1892 z"
       style="fill:#647542" />
  </g>
</svg>
